# File created by Blade
# Date/Time:  Tue Sep 30 19:12:01 2014
#---------------------------------------------------------
:version 1.10
:name HOM
:units
  mass 1.0
  length 1.000000
  angle deg
:documentation
     Acclaim Skeleton File
:root
   axis xyz
   order TX TY TZ RX RY RZ
   position 0.000000 0.000000 0.000000
   orientation 0 0 0
:bonedata
   begin
      id 1
      name Spine_dum
      direction 0.000000 1.000000 0.000000
      length 7.508948
      axis 0.0 0.0 0.0 xyz
   end
   begin
      id 2
      name LeftUpLeg_dum
      direction 1.000000 0.000000 0.000000
      length 3.000560
      axis 0.0 0.0 0.0 xyz
   end
   begin
      id 3
      name RightUpLeg_dum
      direction -1.000000 0.000000 0.000000
      length 3.000560
      axis 0.0 0.0 0.0 xyz
   end
   begin
      id 4
      name Spine
      direction 0.000000 1.000000 0.000000
      length 0.000000
      axis 0.0 0.0 0.0 xyz
      dof rx ry rz
   end
   begin
      id 5
      name Spine_dum1
      direction 0.000000 1.000000 0.000000
      length 13.861154
      axis 0.0 0.0 0.0 xyz
   end
   begin
      id 6
      name Spine_dum2
      direction 0.000000 1.000000 0.000000
      length 8.204781
      axis 0.0 0.0 0.0 xyz
   end
   begin
      id 7
      name Spine_dum3
      direction 0.000000 1.000000 0.000000
      length 8.204781
      axis 0.0 0.0 0.0 xyz
   end
   begin
      id 8
      name Head
      direction 0.000000 1.000000 0.000000
      length 4.527550
      axis 0.0 0.0 0.0 xyz
      dof rx ry rz
   end
   begin
      id 9
      name LeftShoulder
      direction 1.000000 0.000000 0.000000
      length 6.635956
      axis 0.0 0.0 -90.0 xyz
      dof rx ry rz
   end
   begin
      id 10
      name LeftArm
      direction 1.000000 0.000000 0.000000
      length 10.274218
      axis 0.0 0.0 -90.0 xyz
      dof rx ry rz
   end
   begin
      id 11
      name LeftForeArm
      direction 1.000000 0.000000 0.000000
      length 8.522147
      axis 0.0 0.0 -90.0 xyz
      dof ry rz rx
   end
   begin
      id 12
      name LeftHand
      direction 0.000000 0.000000 0.000000
      length 0.000000
      axis 0.0 0.0 -90.0 xyz
      dof rx ry rz
   end
   begin
      id 13
      name LeftHand_dum1
      direction 0.000000 0.000000 0.000000
      length 0.000000
      axis 0.0 0.0 -90.0 xyz
   end
   begin
      id 14
      name LeftHand_dum2
      direction 1.000000 0.000000 0.000000
      length 3.937000
      axis 0.0 0.0 -90.0 xyz
   end
   begin
      id 15
      name LeftHandThumb1
      direction 0.000000 0.000000 1.000000
      length 3.937000
      axis 0.0 0.0 -90.0 xyz
      dof rx rz ry
   end
   begin
      id 16
      name RightShoulder
      direction -1.000000 0.000000 0.000000
      length 6.635956
      axis 0.0 0.0 90.0 xyz
      dof rx ry rz
   end
   begin
      id 17
      name RightArm
      direction -1.000000 0.000000 0.000000
      length 10.274218
      axis 0.0 0.0 90.0 xyz
      dof rx ry rz
   end
   begin
      id 18
      name RightForeArm
      direction -1.000000 0.000000 0.000000
      length 8.522147
      axis 0.0 0.0 90.0 xyz
      dof ry rz rx
   end
   begin
      id 19
      name RightHand
      direction 0.000000 0.000000 0.000000
      length 0.000000
      axis 0.0 0.0 90.0 xyz
      dof rx ry rz
   end
   begin
      id 20
      name RightHand_dum1
      direction 0.000000 0.000000 0.000000
      length 0.000000
      axis 0.0 0.0 90.0 xyz
   end
   begin
      id 21
      name RightHand_dum2
      direction -1.000000 0.000000 0.000000
      length 3.937000
      axis 0.0 0.0 90.0 xyz
   end
   begin
      id 22
      name RightHandThumb1
      direction 0.000000 0.000000 1.000000
      length 3.937000
      axis 0.0 0.0 90.0 xyz
      dof rx rz ry
   end
   begin
      id 23
      name LeftUpLeg
      direction 0.000000 -1.000000 0.000000
      length 16.490845
      axis 0.0 0.0 0.0 xyz
      dof rx ry rz
   end
   begin
      id 24
      name LeftLeg
      direction 0.000000 -1.000000 0.000000
      length 14.556576
      axis 0.0 0.0 0.0 xyz
      dof rx ry rz
   end
   begin
      id 25
      name LeftFoot
      direction 0.000000 -0.258819 0.965926
      length 4.831116
      axis 15.0 0.0 0.0 xyz
      dof rx ry rz
   end
   begin
      id 26
      name LeftToeBase
      direction 0.000000 0.000000 1.000000
      length 2.952750
      axis 0.0 0.0 0.0 xyz
      dof rx ry rz
   end
   begin
      id 27
      name RightUpLeg
      direction 0.000000 -1.000000 0.000000
      length 16.490845
      axis 0.0 0.0 0.0 xyz
      dof rx ry rz
   end
   begin
      id 28
      name RightLeg
      direction 0.000000 -1.000000 0.000000
      length 14.556576
      axis 0.0 0.0 0.0 xyz
      dof rx ry rz
   end
   begin
      id 29
      name RightFoot
      direction 0.000000 -0.258819 0.965926
      length 4.831116
      axis 15.0 0.0 0.0 xyz
      dof rx ry rz
   end
   begin
      id 30
      name RightToeBase
      direction 0.000000 0.000000 1.000000
      length 2.952750
      axis 0.0 0.0 0.0 xyz
      dof rx ry rz
   end
:hierarchy
   begin
      root Spine_dum LeftUpLeg_dum RightUpLeg_dum
      Spine_dum Spine
      LeftUpLeg_dum LeftUpLeg
      RightUpLeg_dum RightUpLeg
      Spine Spine_dum1 Spine_dum2 Spine_dum3
      Spine_dum1 Head
      Spine_dum2 LeftShoulder
      Spine_dum3 RightShoulder
      LeftShoulder LeftArm
      LeftArm LeftForeArm
      LeftForeArm LeftHand
      LeftHand LeftHand_dum1 LeftHand_dum2
      LeftHand_dum1 LeftHandThumb1
      RightShoulder RightArm
      RightArm RightForeArm
      RightForeArm RightHand
      RightHand RightHand_dum1 RightHand_dum2
      RightHand_dum1 RightHandThumb1
      LeftUpLeg LeftLeg
      LeftLeg LeftFoot
      LeftFoot LeftToeBase
      RightUpLeg RightLeg
      RightLeg RightFoot
      RightFoot RightToeBase
   end

# File created by Blade
# Date/Time:  Thu Sep 25 17:14:50 2014
# Frame Rate: 120.000 fps
#------------------------------------------------------
:FULLY-SPECIFIED
:DEGREES
61
root 0.109019 32.850699 -2.659323 13.172884 3.220324 -1.234297
Spine -12.504670 5.088563 0.093004
Head -9.055296 -8.159713 10.795709
LeftShoulder -12.721735 22.467028 27.845299
LeftArm 22.697358 -22.822278 -32.414085
LeftForeArm 7.660570 -0.000000 13.530702
LeftHand -30.300961 -0.000000 -2.365436
LeftHandThumb1 -26.253704 0.000000 33.147579
RightShoulder -19.211754 12.076425 -39.635951
RightArm -7.053958 8.632884 33.081839
RightForeArm -28.712779 -0.000000 16.740715
RightHand -10.438534 -0.000000 7.802470
RightHandThumb1 -24.326973 -0.000000 -32.862282
LeftUpLeg -7.521383 1.843083 2.925195
LeftLeg -0.778511 -0.000000 0.000000
LeftFoot -12.102344 10.227217 -19.454549
LeftToeBase 4.060524 -0.000000 -0.000000
RightUpLeg -10.126741 -7.994379 1.483786
RightLeg 3.808683 -0.000000 -0.000000
RightFoot -10.364159 -3.414718 -2.893965
RightToeBase 0.917930 -0.000000 -0.000000
62
root 0.104562 32.850520 -2.653504 13.186537 3.225482 -1.220367
Spine -12.493971 5.042233 0.072761
Head -8.940490 -8.237061 10.873585
LeftShoulder -12.711514 22.481031 27.756575
LeftArm 22.594908 -22.958999 -32.430193
LeftForeArm 7.802220 -0.000000 13.705955
LeftHand -30.415062 -0.000000 -2.165364
LeftHandThumb1 -26.253704 0.000000 33.147579
RightShoulder -19.181336 12.042315 -39.489630
RightArm -6.938083 8.595198 33.037710
RightForeArm -28.654271 -0.000000 16.729246
RightHand -10.421261 -0.000000 7.790981
RightHandThumb1 -24.326973 -0.000000 -32.862282
LeftUpLeg -7.511444 1.799619 2.925624
LeftLeg -0.805517 -0.000000 0.000000
LeftFoot -12.090389 10.282912 -19.467408
LeftToeBase 4.060585 -0.000000 -0.000000
RightUpLeg -10.147657 -7.887499 1.456264
RightLeg 3.873792 -0.000000 -0.000000
RightFoot -10.403735 -3.552162 -2.939911
RightToeBase 0.890781 -0.000000 -0.000000
63
root 0.095549 32.850013 -2.647624 13.214087 3.227641 -1.232657
Spine -12.492814 5.028611 0.078483
Head -8.844512 -8.353644 10.870113
LeftShoulder -12.755932 22.518747 27.619100
LeftArm 22.692861 -22.769896 -32.271338
LeftForeArm 7.607181 -0.000000 13.536746
LeftHand -30.411438 0.000000 -1.875813
LeftHandThumb1 -26.253704 0.000000 33.147579
RightShoulder -19.220759 11.983663 -39.371189
RightArm -6.764957 8.558316 33.042830
RightForeArm -28.669980 0.000000 16.679135
RightHand -10.376240 0.000000 7.535433
RightHandThumb1 -24.326973 -0.000000 -32.862282
LeftUpLeg -7.532386 1.855323 2.948843
LeftLeg -0.800047 -0.000000 0.000000
LeftFoot -12.103112 10.214412 -19.510283
LeftToeBase 4.063366 -0.000000 -0.000000
RightUpLeg -10.176728 -7.818128 1.467968
RightLeg 3.891063 -0.000000 -0.000000
RightFoot -10.419829 -3.464743 -2.796028
RightToeBase 0.849141 -0.000000 -0.000000
64
root 0.088750 32.849959 -2.642911 13.241957 3.245500 -1.231618
Spine -12.486646 5.006567 0.068349
Head -8.762622 -8.487536 10.895128
LeftShoulder -12.725073 22.521146 27.532881
LeftArm 22.639281 -22.832483 -32.266689
LeftForeArm 7.608949 -0.000000 13.643746
LeftHand -30.408829 -0.000000 -1.878292
LeftHandThumb1 -26.253704 0.000000 33.147579
RightShoulder -19.222566 11.915284 -39.236500
RightArm -6.688577 8.547946 33.038069
RightForeArm -28.682369 0.000000 16.724666
RightHand -10.406785 -0.000000 7.403251
RightHandThumb1 -24.326973 -0.000000 -32.862282
LeftUpLeg -7.558372 1.831405 2.964917
LeftLeg -0.792707 -0.000000 0.000000
LeftFoot -12.104429 10.219846 -19.546311
LeftToeBase 4.074350 -0.000000 -0.000000
RightUpLeg -10.210963 -7.727915 1.461131
RightLeg 3.928997 -0.000000 -0.000000
RightFoot -10.421794 -3.503369 -2.790752
RightToeBase 0.749784 -0.000000 -0.000000
65
root 0.082521 32.849862 -2.639287 13.287793 3.252785 -1.226392
Spine -12.499284 5.006658 0.059125
Head -8.693248 -8.617442 10.894569
LeftShoulder -12.687554 22.500615 27.420811
LeftArm 22.618897 -22.850935 -32.265645
LeftForeArm 7.714103 -0.000000 13.680351
LeftHand -30.385801 -0.000000 -1.709855
LeftHandThumb1 -26.253704 0.000000 33.147579
RightShoulder -19.247348 11.797180 -39.061484
RightArm -6.540785 8.504750 33.017517
RightForeArm -28.692511 -0.000000 16.746241
RightHand -10.441027 0.000000 7.318867
RightHandThumb1 -24.326973 -0.000000 -32.862282
LeftUpLeg -7.603985 1.815918 2.973035
LeftLeg -0.783232 -0.000000 0.000000
LeftFoot -12.115000 10.234441 -19.554279
LeftToeBase 4.083336 -0.000000 -0.000000
RightUpLeg -10.272077 -7.606677 1.446430
RightLeg 3.984862 -0.000000 -0.000000
RightFoot -10.461547 -3.544681 -2.744986
RightToeBase 0.781471 -0.000000 -0.000000
66
root 0.076726 32.850158 -2.633722 13.307499 3.257845 -1.206729
Spine -12.482684 4.995024 0.022551
Head -8.584673 -8.716725 10.946284
LeftShoulder -12.682737 22.501845 27.279503
LeftArm 22.645678 -22.953242 -32.309158
LeftForeArm 7.741157 -0.000000 13.783475
LeftHand -30.470422 -0.000000 -1.476989
LeftHandThumb1 -26.253704 0.000000 33.147579
RightShoulder -19.259863 11.712232 -38.835447
RightArm -6.418139 8.389683 32.982790
RightForeArm -28.555757 -0.000000 16.760129
RightHand -10.419101 -0.000000 6.963675
RightHandThumb1 -24.326973 -0.000000 -32.862282
LeftUpLeg -7.628749 1.814089 2.963930
LeftLeg -0.750067 -0.000000 0.000000
LeftFoot -12.130952 10.228712 -19.607631
LeftToeBase 4.074098 -0.000000 -0.000000
RightUpLeg -10.300775 -7.473537 1.409373
RightLeg 4.035379 -0.000000 -0.000000
RightFoot -10.497985 -3.610963 -2.726640
RightToeBase 0.834519 -0.000000 -0.000000
67
root 0.069820 32.849959 -2.630454 13.353255 3.267410 -1.190946
Spine -12.491715 4.947033 -0.003968
Head -8.499576 -8.797873 10.987997
LeftShoulder -12.632108 22.431450 27.184913
LeftArm 22.517445 -22.857531 -32.297158
LeftForeArm 7.656044 -0.000000 13.900611
LeftHand -30.584511 -0.000000 -1.331918
LeftHandThumb1 -26.253704 0.000000 33.147579
RightShoulder -19.224062 11.663235 -38.640395
RightArm -6.365909 8.331340 32.986078
RightForeArm -28.601584 -0.000000 16.793773
RightHand -10.375681 -0.000000 6.787089
RightHandThumb1 -24.326973 -0.000000 -32.862282
LeftUpLeg -7.681426 1.795097 2.962512
LeftLeg -0.726221 -0.000000 0.000000
LeftFoot -12.145039 10.246685 -19.638602
LeftToeBase 4.087516 -0.000000 -0.000000
RightUpLeg -10.383380 -7.311326 1.373884
RightLeg 4.155019 -0.000000 -0.000000
RightFoot -10.550461 -3.756834 -2.721832
RightToeBase 0.787662 -0.000000 -0.000000
68
root 0.061318 32.849365 -2.626255 13.397494 3.283865 -1.194048
Spine -12.495763 4.880755 0.004452
Head -8.419651 -8.862757 11.026073
LeftShoulder -12.671425 22.403839 27.024141
LeftArm 22.522026 -22.794076 -32.342281
LeftForeArm 7.670129 -0.000000 13.973146
LeftHand -30.554702 -0.000000 -1.118475
LeftHandThumb1 -26.253704 0.000000 33.147579
RightShoulder -19.191799 11.588017 -38.456264
RightArm -6.316605 8.204905 33.050921
RightForeArm -28.513909 -0.000000 16.913535
RightHand -10.459310 -0.000000 6.647366
RightHandThumb1 -24.326973 -0.000000 -32.862282
LeftUpLeg -7.738411 1.813294 2.980963
LeftLeg -0.689698 -0.000000 0.000000
LeftFoot -12.167348 10.198521 -19.680042
LeftToeBase 4.084722 -0.000000 -0.000000
RightUpLeg -10.451981 -7.169846 1.377047
RightLeg 4.213779 -0.000000 -0.000000
RightFoot -10.576122 -3.816251 -2.671856
RightToeBase 0.727199 -0.000000 -0.000000
69
root 0.053315 32.849112 -2.621403 13.435328 3.291875 -1.191427
Spine -12.491136 4.828298 0.006983
Head -8.348430 -8.923081 11.033240
LeftShoulder -12.704522 22.415757 26.830298
LeftArm 22.576540 -22.747954 -32.392543
LeftForeArm 7.603292 -0.000000 14.033973
LeftHand -30.594131 -0.000000 -0.982192
LeftHandThumb1 -26.253704 0.000000 33.147579
RightShoulder -19.193888 11.482853 -38.228454
RightArm -6.174550 8.090088 33.110547
RightForeArm -28.516967 -0.000000 16.945110
RightHand -10.363939 -0.000000 6.428406
RightHandThumb1 -24.326973 -0.000000 -32.862282
LeftUpLeg -7.780340 1.828821 2.991574
LeftLeg -0.665822 -0.000000 0.000000
LeftFoot -12.173149 10.178191 -19.706668
LeftToeBase 4.107775 -0.000000 -0.000000
RightUpLeg -10.526037 -7.013603 1.362035
RightLeg 4.316759 -0.000000 -0.000000
RightFoot -10.613615 -3.893322 -2.681664
RightToeBase 0.664719 -0.000000 -0.000000
70
root 0.042907 32.848512 -2.616302 13.473402 3.303733 -1.211571
Spine -12.488800 4.793048 0.026522
Head -8.270324 -9.026203 11.037561
LeftShoulder -12.675880 22.398874 26.694065
LeftArm 22.567356 -22.755704 -32.556861
LeftForeArm 7.658077 0.000000 14.178907
LeftHand -30.666797 -0.000000 -0.899628
LeftHandThumb1 -26.253704 0.000000 33.147579
RightShoulder -19.184535 11.422574 -38.026400
RightArm -6.140002 7.993992 33.194336
RightForeArm -28.624140 -0.000000 17.045256
RightHand -10.418506 -0.000000 6.343435
RightHandThumb1 -24.326973 -0.000000 -32.862282
LeftUpLeg -7.834025 1.875616 3.027633
LeftLeg -0.620709 -0.000000 0.000000
LeftFoot -12.202089 10.117875 -19.749122
LeftToeBase 4.085451 -0.000000 -0.000000
RightUpLeg -10.583295 -6.874774 1.374531
RightLeg 4.381690 -0.000000 -0.000000
RightFoot -10.630633 -3.948044 -2.691373
RightToeBase 0.631776 -0.000000 -0.000000
71
root 0.034095 32.846975 -2.612408 13.516393 3.297720 -1.204508
Spine -12.482166 4.800607 -0.003701
Head -8.219180 -9.107175 11.058534
LeftShoulder -12.625947 22.407152 26.559940
LeftArm 22.680989 -22.780609 -32.774439
LeftForeArm 7.796940 -0.000000 14.143803
LeftHand -30.534219 -0.000000 -0.727179
LeftHandThumb1 -26.253704 0.000000 33.147579
RightShoulder -19.215083 11.377878 -37.836837
RightArm -6.116788 7.701380 33.325707
RightForeArm -28.568860 0.000000 17.115596
RightHand -10.477688 0.000000 6.101312
RightHandThumb1 -24.326973 -0.000000 -32.862282
LeftUpLeg -7.889561 1.909684 3.033027
LeftLeg -0.574238 -0.000000 0.000000
LeftFoot -12.212523 10.061712 -19.786083
LeftToeBase 4.019420 -0.000000 -0.000000
RightUpLeg -10.671657 -6.682776 1.354412
RightLeg 4.499827 -0.000000 -0.000000
RightFoot -10.674513 -4.087214 -2.703965
RightToeBase 0.496642 -0.000000 -0.000000
72
root 0.028036 32.845918 -2.606754 13.561016 3.272702 -1.207204
Spine -12.487728 4.830123 -0.016201
Head -8.133867 -9.211253 11.123885
LeftShoulder -12.569740 22.428980 26.427535
LeftArm 22.696497 -22.666423 -32.959644
LeftForeArm 7.647974 -0.000000 14.344397
LeftHand -30.799518 -0.000000 -0.679667
LeftHandThumb1 -26.253704 0.000000 33.147579
RightShoulder -19.271936 11.272370 -37.613611
RightArm -6.024792 7.495220 33.456039
RightForeArm -28.620695 -0.000000 17.178259
RightHand -10.375350 -0.000000 5.969812
RightHandThumb1 -24.326973 -0.000000 -32.862282
LeftUpLeg -7.926688 1.931142 3.044104
LeftLeg -0.555479 -0.000000 0.000000
LeftFoot -12.245557 10.056698 -19.835192
LeftToeBase 3.992943 -0.000000 -0.000000
RightUpLeg -10.758332 -6.542565 1.342189
RightLeg 4.601486 -0.000000 -0.000000
RightFoot -10.699133 -4.086890 -2.661899
RightToeBase 0.397797 -0.000000 -0.000000
